<?xml version="1.0" encoding="UTF-8" standalone="no"?>
<!DOCTYPE svg PUBLIC "-//W3C//DTD SVG 1.1//EN"
 "http://www.w3.org/Graphics/SVG/1.1/DTD/svg11.dtd">
<!-- Generated by graphviz version 2.38.0 (20140413.2041)
 -->
<!-- Title: G Pages: 1 -->
<svg width="1219pt" height="772pt"
 viewBox="0.00 0.00 1219.00 772.00" xmlns="http://www.w3.org/2000/svg" xmlns:xlink="http://www.w3.org/1999/xlink">
<g id="graph0" class="graph" transform="scale(1 1) rotate(0) translate(4 768)">
<title>G</title>
<polygon fill="white" stroke="none" points="-4,4 -4,-768 1215,-768 1215,4 -4,4"/>
<g id="clust1" class="cluster"><title>cluster_north_america</title>
<polygon fill="lightgrey" stroke="black" points="343,-465 343,-756 731,-756 731,-465 343,-465"/>
<text text-anchor="middle" x="537" y="-740.8" font-family="Times,serif" font-size="14.00">North America</text>
</g>
<g id="clust6" class="cluster"><title>cluster_south_america</title>
<polygon fill="lightgrey" stroke="black" points="8,-235 8,-457 160,-457 160,-235 8,-235"/>
<text text-anchor="middle" x="84" y="-441.8" font-family="Times,serif" font-size="14.00">South America</text>
</g>
<g id="clust10" class="cluster"><title>cluster_africa</title>
<polygon fill="lightgrey" stroke="black" points="168,-80 168,-310 418,-310 418,-80 168,-80"/>
<text text-anchor="middle" x="293" y="-294.8" font-family="Times,serif" font-size="14.00">Africa</text>
</g>
<g id="clust14" class="cluster"><title>cluster_europa</title>
<polygon fill="lightgrey" stroke="black" points="961,-80 961,-310 1203,-310 1203,-80 961,-80"/>
<text text-anchor="middle" x="1082" y="-294.8" font-family="Times,serif" font-size="14.00">Europe</text>
</g>
<g id="clust18" class="cluster"><title>cluster_australia</title>
<polygon fill="lightgrey" stroke="black" points="634,-8 634,-155 953,-155 953,-8 634,-8"/>
<text text-anchor="middle" x="793.5" y="-139.8" font-family="Times,serif" font-size="14.00">Australia</text>
</g>
<g id="clust21" class="cluster"><title>cluster_asia</title>
<polygon fill="lightgrey" stroke="black" points="481,-163 481,-457 953,-457 953,-163 481,-163"/>
<text text-anchor="middle" x="717" y="-441.8" font-family="Times,serif" font-size="14.00">Asia</text>
</g>
<!-- NWT -->
<g id="node1" class="node"><title>NWT</title>
<ellipse fill="yellow" stroke="yellow" cx="520" cy="-707" rx="81.4863" ry="18"/>
<text text-anchor="middle" x="520" y="-703.3" font-family="Times,serif" font-size="14.00">Northwest Territory</text>
</g>
<!-- QC -->
<g id="node2" class="node"><title>QC</title>
<ellipse fill="yellow" stroke="yellow" cx="651" cy="-635" rx="37.8943" ry="18"/>
<text text-anchor="middle" x="651" y="-631.3" font-family="Times,serif" font-size="14.00">Quebec</text>
</g>
<!-- EUS -->
<g id="node4" class="node"><title>EUS</title>
<ellipse fill="yellow" stroke="yellow" cx="636" cy="-563" rx="87.1846" ry="18"/>
<text text-anchor="middle" x="636" y="-559.3" font-family="Times,serif" font-size="14.00">Eastern United States</text>
</g>
<!-- QC&#45;&gt;EUS -->
<g id="edge9" class="edge"><title>QC&#45;&gt;EUS</title>
<path fill="none" stroke="black" d="M647.369,-617.055C645.045,-606.211 642.039,-592.183 639.702,-581.275"/>
</g>
<!-- Greenland -->
<g id="node7" class="node"><title>Greenland</title>
<ellipse fill="yellow" stroke="yellow" cx="667" cy="-707" rx="47.3916" ry="18"/>
<text text-anchor="middle" x="667" y="-703.3" font-family="Times,serif" font-size="14.00">Greenland</text>
</g>
<!-- QC&#45;&gt;Greenland -->
<g id="edge10" class="edge"><title>QC&#45;&gt;Greenland</title>
<path fill="none" stroke="black" d="M654.949,-653.275C657.442,-664.183 660.648,-678.211 663.127,-689.055"/>
</g>
<!-- Ontario -->
<g id="node9" class="node"><title>Ontario</title>
<ellipse fill="yellow" stroke="yellow" cx="558" cy="-635" rx="37.8943" ry="18"/>
<text text-anchor="middle" x="558" y="-631.3" font-family="Times,serif" font-size="14.00">Ontario</text>
</g>
<!-- QC&#45;&gt;Ontario -->
<g id="edge8" class="edge"><title>QC&#45;&gt;Ontario</title>
<path fill="none" stroke="black" d="M613.037,-635C607.285,-635 601.533,-635 595.781,-635"/>
</g>
<!-- WUS -->
<g id="node3" class="node"><title>WUS</title>
<ellipse fill="yellow" stroke="yellow" cx="441" cy="-563" rx="90.1842" ry="18"/>
<text text-anchor="middle" x="441" y="-559.3" font-family="Times,serif" font-size="14.00">Western United States</text>
</g>
<!-- EUS&#45;&gt;WUS -->
<g id="edge12" class="edge"><title>EUS&#45;&gt;WUS</title>
<path fill="none" stroke="black" d="M548.765,-563C543.058,-563 537.351,-563 531.645,-563"/>
</g>
<!-- EUS&#45;&gt;Ontario -->
<g id="edge11" class="edge"><title>EUS&#45;&gt;Ontario</title>
<path fill="none" stroke="black" d="M617.472,-580.628C604.56,-592.215 587.47,-607.552 574.925,-618.811"/>
</g>
<!-- CentralAmerica -->
<g id="node5" class="node"><title>CentralAmerica</title>
<ellipse fill="yellow" stroke="yellow" cx="441" cy="-491" rx="69.5877" ry="18"/>
<text text-anchor="middle" x="441" y="-487.3" font-family="Times,serif" font-size="14.00">Central America</text>
</g>
<!-- CentralAmerica&#45;&gt;WUS -->
<g id="edge6" class="edge"><title>CentralAmerica&#45;&gt;WUS</title>
<path fill="none" stroke="black" d="M441,-509.104C441,-519.917 441,-533.846 441,-544.697"/>
</g>
<!-- CentralAmerica&#45;&gt;EUS -->
<g id="edge7" class="edge"><title>CentralAmerica&#45;&gt;EUS</title>
<path fill="none" stroke="black" d="M479.971,-505.989C513.18,-517.911 560.771,-534.995 594.646,-547.155"/>
</g>
<!-- Venezuala -->
<g id="node10" class="node"><title>Venezuala</title>
<ellipse fill="orangered" stroke="orangered" cx="104" cy="-408" rx="48.1917" ry="18"/>
<text text-anchor="middle" x="104" y="-404.3" font-family="Times,serif" font-size="14.00">Venezuala</text>
</g>
<!-- CentralAmerica&#45;&gt;Venezuala -->
<g id="edge68" class="edge"><title>CentralAmerica&#45;&gt;Venezuala</title>
<path fill="none" stroke="black" d="M391.997,-478.222C324.727,-462.053 205.105,-433.301 143.335,-418.454"/>
</g>
<!-- Alaska -->
<g id="node6" class="node"><title>Alaska</title>
<ellipse fill="yellow" stroke="yellow" cx="386" cy="-707" rx="35.194" ry="18"/>
<text text-anchor="middle" x="386" y="-703.3" font-family="Times,serif" font-size="14.00">Alaska</text>
</g>
<!-- Alaska&#45;&gt;NWT -->
<g id="edge2" class="edge"><title>Alaska&#45;&gt;NWT</title>
<path fill="none" stroke="black" d="M421.332,-707C427.113,-707 432.895,-707 438.676,-707"/>
</g>
<!-- Alberta -->
<g id="node8" class="node"><title>Alberta</title>
<ellipse fill="yellow" stroke="yellow" cx="453" cy="-635" rx="37.0935" ry="18"/>
<text text-anchor="middle" x="453" y="-631.3" font-family="Times,serif" font-size="14.00">Alberta</text>
</g>
<!-- Alaska&#45;&gt;Alberta -->
<g id="edge1" class="edge"><title>Alaska&#45;&gt;Alberta</title>
<path fill="none" stroke="black" d="M400.869,-690.465C411.818,-679.026 426.66,-663.519 437.708,-651.977"/>
</g>
<!-- Greenland&#45;&gt;NWT -->
<g id="edge13" class="edge"><title>Greenland&#45;&gt;NWT</title>
<path fill="none" stroke="black" d="M619.487,-707C613.408,-707 607.33,-707 601.252,-707"/>
</g>
<!-- Greenland&#45;&gt;Ontario -->
<g id="edge14" class="edge"><title>Greenland&#45;&gt;Ontario</title>
<path fill="none" stroke="black" d="M643.884,-691.155C624.886,-678.955 598.171,-661.798 579.6,-649.872"/>
</g>
<!-- Iceland -->
<g id="node20" class="node"><title>Iceland</title>
<ellipse fill="lightblue" stroke="lightblue" cx="1159" cy="-261" rx="36.2938" ry="18"/>
<text text-anchor="middle" x="1159" y="-257.3" font-family="Times,serif" font-size="14.00">Iceland</text>
</g>
<!-- Greenland&#45;&gt;Iceland -->
<g id="edge72" class="edge"><title>Greenland&#45;&gt;Iceland</title>
<path fill="none" stroke="black" d="M711.338,-700.533C818.915,-686.037 1085,-642.271 1085,-564 1085,-564 1085,-564 1085,-407 1085,-354.997 1123.23,-302.841 1144.73,-277.617"/>
</g>
<!-- Alberta&#45;&gt;NWT -->
<g id="edge3" class="edge"><title>Alberta&#45;&gt;NWT</title>
<path fill="none" stroke="black" d="M468.151,-651.829C478.767,-662.92 492.937,-677.726 503.781,-689.055"/>
</g>
<!-- Alberta&#45;&gt;WUS -->
<g id="edge5" class="edge"><title>Alberta&#45;&gt;WUS</title>
<path fill="none" stroke="black" d="M450.095,-617.055C448.236,-606.211 445.831,-592.183 443.961,-581.275"/>
</g>
<!-- Alberta&#45;&gt;Ontario -->
<g id="edge4" class="edge"><title>Alberta&#45;&gt;Ontario</title>
<path fill="none" stroke="black" d="M490.324,-635C500.282,-635 510.239,-635 520.197,-635"/>
</g>
<!-- Ontario&#45;&gt;WUS -->
<g id="edge15" class="edge"><title>Ontario&#45;&gt;WUS</title>
<path fill="none" stroke="black" d="M535.441,-620.503C516.317,-609.061 488.826,-592.614 468.431,-580.412"/>
</g>
<!-- Brazil -->
<g id="node11" class="node"><title>Brazil</title>
<ellipse fill="orangered" stroke="orangered" cx="120" cy="-336" rx="32.4942" ry="18"/>
<text text-anchor="middle" x="120" y="-332.3" font-family="Times,serif" font-size="14.00">Brazil</text>
</g>
<!-- Brazil&#45;&gt;Venezuala -->
<g id="edge18" class="edge"><title>Brazil&#45;&gt;Venezuala</title>
<path fill="none" stroke="black" d="M116.051,-354.275C113.558,-365.183 110.352,-379.211 107.873,-390.055"/>
</g>
<!-- NorthAfrica -->
<g id="node14" class="node"><title>NorthAfrica</title>
<ellipse fill="orange" stroke="orange" cx="274" cy="-261" rx="53.8905" ry="18"/>
<text text-anchor="middle" x="274" y="-257.3" font-family="Times,serif" font-size="14.00">NorthAfrica</text>
</g>
<!-- Brazil&#45;&gt;NorthAfrica -->
<g id="edge67" class="edge"><title>Brazil&#45;&gt;NorthAfrica</title>
<path fill="none" stroke="black" d="M144.062,-323.594C171.133,-310.762 215.122,-289.91 244.307,-276.075"/>
</g>
<!-- Peru -->
<g id="node12" class="node"><title>Peru</title>
<ellipse fill="orangered" stroke="orangered" cx="43" cy="-336" rx="27" ry="18"/>
<text text-anchor="middle" x="43" y="-332.3" font-family="Times,serif" font-size="14.00">Peru</text>
</g>
<!-- Peru&#45;&gt;Venezuala -->
<g id="edge19" class="edge"><title>Peru&#45;&gt;Venezuala</title>
<path fill="none" stroke="black" d="M56.2361,-352.189C66.1585,-363.575 79.7158,-379.133 89.8521,-390.765"/>
</g>
<!-- Argentina -->
<g id="node13" class="node"><title>Argentina</title>
<ellipse fill="orangered" stroke="orangered" cx="84" cy="-261" rx="46.2923" ry="18"/>
<text text-anchor="middle" x="84" y="-257.3" font-family="Times,serif" font-size="14.00">Argentina</text>
</g>
<!-- Argentina&#45;&gt;Brazil -->
<g id="edge16" class="edge"><title>Argentina&#45;&gt;Brazil</title>
<path fill="none" stroke="black" d="M92.2612,-278.752C98.1322,-290.657 105.981,-306.572 111.831,-318.435"/>
</g>
<!-- Argentina&#45;&gt;Peru -->
<g id="edge17" class="edge"><title>Argentina&#45;&gt;Peru</title>
<path fill="none" stroke="black" d="M74.642,-278.662C67.8816,-290.699 58.7993,-306.87 52.0992,-318.799"/>
</g>
<!-- SEU -->
<g id="node25" class="node"><title>SEU</title>
<ellipse fill="lightblue" stroke="lightblue" cx="996" cy="-106" rx="27.0966" ry="18"/>
<text text-anchor="middle" x="996" y="-102.3" font-family="Times,serif" font-size="14.00">SEU</text>
</g>
<!-- NorthAfrica&#45;&gt;SEU -->
<g id="edge75" class="edge"><title>NorthAfrica&#45;&gt;SEU</title>
<path fill="none" stroke="black" d="M302.955,-245.775C322.065,-235.886 347.301,-221.857 368,-207 391.778,-189.933 389.746,-173.673 417,-163 444.937,-152.059 930.005,-168.095 957,-155 970.525,-148.439 980.921,-134.699 987.565,-123.594"/>
</g>
<!-- WEU -->
<g id="node26" class="node"><title>WEU</title>
<ellipse fill="lightblue" stroke="lightblue" cx="1094" cy="-106" rx="31.3957" ry="18"/>
<text text-anchor="middle" x="1094" y="-102.3" font-family="Times,serif" font-size="14.00">WEU</text>
</g>
<!-- NorthAfrica&#45;&gt;WEU -->
<g id="edge76" class="edge"><title>NorthAfrica&#45;&gt;WEU</title>
<path fill="none" stroke="black" d="M307.517,-246.686C346.526,-231.185 405.812,-207.604 407,-207 439.759,-190.352 441.765,-173.43 477,-163 536.137,-145.495 973.788,-175.37 1032,-155 1050.76,-148.436 1068.29,-133.746 1079.89,-122.335"/>
</g>
<!-- Egypt -->
<g id="node15" class="node"><title>Egypt</title>
<ellipse fill="orange" stroke="orange" cx="378" cy="-261" rx="31.6951" ry="18"/>
<text text-anchor="middle" x="378" y="-257.3" font-family="Times,serif" font-size="14.00">Egypt</text>
</g>
<!-- Egypt&#45;&gt;NorthAfrica -->
<g id="edge28" class="edge"><title>Egypt&#45;&gt;NorthAfrica</title>
<path fill="none" stroke="black" d="M345.989,-261C340.003,-261 334.017,-261 328.031,-261"/>
</g>
<!-- Egypt&#45;&gt;SEU -->
<g id="edge71" class="edge"><title>Egypt&#45;&gt;SEU</title>
<path fill="none" stroke="black" d="M388.429,-243.845C404.329,-220.873 437.038,-179.704 477,-163 501.607,-152.714 933.015,-166.662 957,-155 970.519,-148.427 980.915,-134.688 987.561,-123.586"/>
</g>
<!-- MiddleEast -->
<g id="node40" class="node"><title>MiddleEast</title>
<ellipse fill="green" stroke="green" cx="816" cy="-189" rx="51.9908" ry="18"/>
<text text-anchor="middle" x="816" y="-185.3" font-family="Times,serif" font-size="14.00">MiddleEast</text>
</g>
<!-- Egypt&#45;&gt;MiddleEast -->
<g id="edge70" class="edge"><title>Egypt&#45;&gt;MiddleEast</title>
<path fill="none" stroke="black" d="M405.503,-251.897C425.24,-246.368 452.556,-239.293 477,-235 599.308,-213.518 632.963,-229.975 755,-207 762.671,-205.556 770.779,-203.605 778.492,-201.54"/>
</g>
<!-- Congo -->
<g id="node16" class="node"><title>Congo</title>
<ellipse fill="orange" stroke="orange" cx="210" cy="-189" rx="34.394" ry="18"/>
<text text-anchor="middle" x="210" y="-185.3" font-family="Times,serif" font-size="14.00">Congo</text>
</g>
<!-- Congo&#45;&gt;NorthAfrica -->
<g id="edge21" class="edge"><title>Congo&#45;&gt;NorthAfrica</title>
<path fill="none" stroke="black" d="M224.181,-205.511C234.458,-216.751 248.335,-231.929 258.833,-243.411"/>
</g>
<!-- EastAfrica -->
<g id="node17" class="node"><title>EastAfrica</title>
<ellipse fill="orange" stroke="orange" cx="311" cy="-189" rx="48.1917" ry="18"/>
<text text-anchor="middle" x="311" y="-185.3" font-family="Times,serif" font-size="14.00">EastAfrica</text>
</g>
<!-- Congo&#45;&gt;EastAfrica -->
<g id="edge20" class="edge"><title>Congo&#45;&gt;EastAfrica</title>
<path fill="none" stroke="black" d="M244.719,-189C250.76,-189 256.801,-189 262.843,-189"/>
</g>
<!-- SouthAfrica -->
<g id="node18" class="node"><title>SouthAfrica</title>
<ellipse fill="orange" stroke="orange" cx="230" cy="-106" rx="53.8905" ry="18"/>
<text text-anchor="middle" x="230" y="-102.3" font-family="Times,serif" font-size="14.00">SouthAfrica</text>
</g>
<!-- Congo&#45;&gt;SouthAfrica -->
<g id="edge22" class="edge"><title>Congo&#45;&gt;SouthAfrica</title>
<path fill="none" stroke="black" d="M214.241,-170.822C217.636,-157.076 222.372,-137.893 225.765,-124.153"/>
</g>
<!-- EastAfrica&#45;&gt;NorthAfrica -->
<g id="edge24" class="edge"><title>EastAfrica&#45;&gt;NorthAfrica</title>
<path fill="none" stroke="black" d="M302.126,-206.789C296.325,-217.764 288.774,-232.049 282.957,-243.055"/>
</g>
<!-- EastAfrica&#45;&gt;Egypt -->
<g id="edge23" class="edge"><title>EastAfrica&#45;&gt;Egypt</title>
<path fill="none" stroke="black" d="M326.442,-206.134C337.586,-217.776 352.532,-233.391 363.462,-244.811"/>
</g>
<!-- EastAfrica&#45;&gt;SouthAfrica -->
<g id="edge25" class="edge"><title>EastAfrica&#45;&gt;SouthAfrica</title>
<path fill="none" stroke="black" d="M294.997,-171.997C280.889,-157.889 260.428,-137.428 246.247,-123.247"/>
</g>
<!-- Madagascar -->
<g id="node19" class="node"><title>Madagascar</title>
<ellipse fill="orange" stroke="orange" cx="356" cy="-106" rx="53.8905" ry="18"/>
<text text-anchor="middle" x="356" y="-102.3" font-family="Times,serif" font-size="14.00">Madagascar</text>
</g>
<!-- EastAfrica&#45;&gt;Madagascar -->
<g id="edge26" class="edge"><title>EastAfrica&#45;&gt;Madagascar</title>
<path fill="none" stroke="black" d="M320.324,-171.217C328.047,-157.315 338.968,-137.657 346.688,-123.762"/>
</g>
<!-- EastAfrica&#45;&gt;SEU -->
<g id="edge69" class="edge"><title>EastAfrica&#45;&gt;SEU</title>
<path fill="none" stroke="black" d="M338.716,-174.278C349.194,-169.777 361.394,-165.334 373,-163 404.81,-156.602 927.798,-169.145 957,-155 970.529,-148.447 980.924,-134.706 987.567,-123.598"/>
</g>
<!-- Madagascar&#45;&gt;SouthAfrica -->
<g id="edge27" class="edge"><title>Madagascar&#45;&gt;SouthAfrica</title>
<path fill="none" stroke="black" d="M301.825,-106C295.93,-106 290.035,-106 284.141,-106"/>
</g>
<!-- Scandinavia -->
<g id="node21" class="node"><title>Scandinavia</title>
<ellipse fill="lightblue" stroke="lightblue" cx="1051" cy="-261" rx="53.8905" ry="18"/>
<text text-anchor="middle" x="1051" y="-257.3" font-family="Times,serif" font-size="14.00">Scandinavia</text>
</g>
<!-- Iceland&#45;&gt;Scandinavia -->
<g id="edge33" class="edge"><title>Iceland&#45;&gt;Scandinavia</title>
<path fill="none" stroke="black" d="M1122.3,-261C1116.53,-261 1110.77,-261 1105,-261"/>
</g>
<!-- Ukraine -->
<g id="node24" class="node"><title>Ukraine</title>
<ellipse fill="lightblue" stroke="lightblue" cx="1008" cy="-189" rx="38.9931" ry="18"/>
<text text-anchor="middle" x="1008" y="-185.3" font-family="Times,serif" font-size="14.00">Ukraine</text>
</g>
<!-- Scandinavia&#45;&gt;Ukraine -->
<g id="edge39" class="edge"><title>Scandinavia&#45;&gt;Ukraine</title>
<path fill="none" stroke="black" d="M1040.59,-243.055C1033.83,-232.049 1025.05,-217.764 1018.31,-206.789"/>
</g>
<!-- GB -->
<g id="node22" class="node"><title>GB</title>
<ellipse fill="lightblue" stroke="lightblue" cx="1168" cy="-189" rx="27" ry="18"/>
<text text-anchor="middle" x="1168" y="-185.3" font-family="Times,serif" font-size="14.00">GB</text>
</g>
<!-- GB&#45;&gt;Iceland -->
<g id="edge29" class="edge"><title>GB&#45;&gt;Iceland</title>
<path fill="none" stroke="black" d="M1165.8,-207.104C1164.41,-217.917 1162.62,-231.846 1161.22,-242.697"/>
</g>
<!-- GB&#45;&gt;Scandinavia -->
<g id="edge31" class="edge"><title>GB&#45;&gt;Scandinavia</title>
<path fill="none" stroke="black" d="M1148.36,-201.752C1128.49,-213.636 1097.72,-232.048 1076.1,-244.983"/>
</g>
<!-- NEU -->
<g id="node23" class="node"><title>NEU</title>
<ellipse fill="lightblue" stroke="lightblue" cx="1094" cy="-189" rx="28.6953" ry="18"/>
<text text-anchor="middle" x="1094" y="-185.3" font-family="Times,serif" font-size="14.00">NEU</text>
</g>
<!-- GB&#45;&gt;NEU -->
<g id="edge30" class="edge"><title>GB&#45;&gt;NEU</title>
<path fill="none" stroke="black" d="M1140.7,-189C1134.67,-189 1128.64,-189 1122.62,-189"/>
</g>
<!-- GB&#45;&gt;WEU -->
<g id="edge32" class="edge"><title>GB&#45;&gt;WEU</title>
<path fill="none" stroke="black" d="M1154.43,-173.143C1141.24,-158.711 1121.31,-136.898 1107.99,-122.313"/>
</g>
<!-- NEU&#45;&gt;Scandinavia -->
<g id="edge35" class="edge"><title>NEU&#45;&gt;Scandinavia</title>
<path fill="none" stroke="black" d="M1083.98,-206.307C1077.2,-217.343 1068.27,-231.887 1061.41,-243.055"/>
</g>
<!-- NEU&#45;&gt;Ukraine -->
<g id="edge36" class="edge"><title>NEU&#45;&gt;Ukraine</title>
<path fill="none" stroke="black" d="M1065.18,-189C1059.22,-189 1053.26,-189 1047.3,-189"/>
</g>
<!-- NEU&#45;&gt;SEU -->
<g id="edge34" class="edge"><title>NEU&#45;&gt;SEU</title>
<path fill="none" stroke="black" d="M1077.26,-174.198C1070.09,-168.288 1061.63,-161.308 1054,-155 1039.99,-143.427 1024.1,-130.271 1012.49,-120.662"/>
</g>
<!-- NEU&#45;&gt;WEU -->
<g id="edge37" class="edge"><title>NEU&#45;&gt;WEU</title>
<path fill="none" stroke="black" d="M1094,-170.822C1094,-157.076 1094,-137.893 1094,-124.153"/>
</g>
<!-- Ural -->
<g id="node31" class="node"><title>Ural</title>
<ellipse fill="green" stroke="green" cx="896" cy="-408" rx="27" ry="18"/>
<text text-anchor="middle" x="896" y="-404.3" font-family="Times,serif" font-size="14.00">Ural</text>
</g>
<!-- Ukraine&#45;&gt;Ural -->
<g id="edge78" class="edge"><title>Ukraine&#45;&gt;Ural</title>
<path fill="none" stroke="black" d="M999.832,-206.865C995.961,-215.216 991.443,-225.517 988,-235 969.229,-286.703 982.955,-307.232 954,-354 943.804,-370.469 927.074,-384.974 914.196,-394.628"/>
</g>
<!-- SEU&#45;&gt;Ukraine -->
<g id="edge38" class="edge"><title>SEU&#45;&gt;Ukraine</title>
<path fill="none" stroke="black" d="M998.541,-124.153C1000.58,-137.893 1003.42,-157.076 1005.46,-170.822"/>
</g>
<!-- Indonesia -->
<g id="node27" class="node"><title>Indonesia</title>
<ellipse fill="pink" stroke="pink" cx="716" cy="-106" rx="44.6926" ry="18"/>
<text text-anchor="middle" x="716" y="-102.3" font-family="Times,serif" font-size="14.00">Indonesia</text>
</g>
<!-- NewGuinea -->
<g id="node28" class="node"><title>NewGuinea</title>
<ellipse fill="pink" stroke="pink" cx="831" cy="-106" rx="52.7911" ry="18"/>
<text text-anchor="middle" x="831" y="-102.3" font-family="Times,serif" font-size="14.00">NewGuinea</text>
</g>
<!-- Indonesia&#45;&gt;NewGuinea -->
<g id="edge42" class="edge"><title>Indonesia&#45;&gt;NewGuinea</title>
<path fill="none" stroke="black" d="M760.922,-106C766.67,-106 772.419,-106 778.168,-106"/>
</g>
<!-- WesternAustralia -->
<g id="node30" class="node"><title>WesternAustralia</title>
<ellipse fill="pink" stroke="pink" cx="715" cy="-34" rx="72.5877" ry="18"/>
<text text-anchor="middle" x="715" y="-30.3" font-family="Times,serif" font-size="14.00">WesternAustralia</text>
</g>
<!-- Indonesia&#45;&gt;WesternAustralia -->
<g id="edge43" class="edge"><title>Indonesia&#45;&gt;WesternAustralia</title>
<path fill="none" stroke="black" d="M715.753,-87.6966C715.598,-76.8463 715.399,-62.9167 715.244,-52.1043"/>
</g>
<!-- NewGuinea&#45;&gt;WesternAustralia -->
<g id="edge44" class="edge"><title>NewGuinea&#45;&gt;WesternAustralia</title>
<path fill="none" stroke="black" d="M806.115,-89.9832C787.076,-78.4939 760.876,-62.6841 741.457,-50.9655"/>
</g>
<!-- EasternAustralia -->
<g id="node29" class="node"><title>EasternAustralia</title>
<ellipse fill="pink" stroke="pink" cx="875" cy="-34" rx="69.5877" ry="18"/>
<text text-anchor="middle" x="875" y="-30.3" font-family="Times,serif" font-size="14.00">EasternAustralia</text>
</g>
<!-- EasternAustralia&#45;&gt;NewGuinea -->
<g id="edge41" class="edge"><title>EasternAustralia&#45;&gt;NewGuinea</title>
<path fill="none" stroke="black" d="M864.141,-52.2753C857.285,-63.183 848.467,-77.2111 841.651,-88.055"/>
</g>
<!-- EasternAustralia&#45;&gt;WesternAustralia -->
<g id="edge40" class="edge"><title>EasternAustralia&#45;&gt;WesternAustralia</title>
<path fill="none" stroke="black" d="M805.182,-34C799.392,-34 793.602,-34 787.812,-34"/>
</g>
<!-- Siberia -->
<g id="node32" class="node"><title>Siberia</title>
<ellipse fill="green" stroke="green" cx="774" cy="-408" rx="35.9954" ry="18"/>
<text text-anchor="middle" x="774" y="-404.3" font-family="Times,serif" font-size="14.00">Siberia</text>
</g>
<!-- Yakutsk -->
<g id="node33" class="node"><title>Yakutsk</title>
<ellipse fill="green" stroke="green" cx="662" cy="-408" rx="40.0939" ry="18"/>
<text text-anchor="middle" x="662" y="-404.3" font-family="Times,serif" font-size="14.00">Yakutsk</text>
</g>
<!-- Siberia&#45;&gt;Yakutsk -->
<g id="edge65" class="edge"><title>Siberia&#45;&gt;Yakutsk</title>
<path fill="none" stroke="black" d="M738.065,-408C726.273,-408 714.48,-408 702.688,-408"/>
</g>
<!-- Afganistan -->
<g id="node34" class="node"><title>Afganistan</title>
<ellipse fill="green" stroke="green" cx="896" cy="-336" rx="49.2915" ry="18"/>
<text text-anchor="middle" x="896" y="-332.3" font-family="Times,serif" font-size="14.00">Afganistan</text>
</g>
<!-- Afganistan&#45;&gt;Ukraine -->
<g id="edge66" class="edge"><title>Afganistan&#45;&gt;Ukraine</title>
<path fill="none" stroke="black" d="M905.467,-318.267C920.552,-291.71 948.962,-242.169 955,-235 964.564,-223.644 977.173,-212.812 987.692,-204.622"/>
</g>
<!-- Afganistan&#45;&gt;Ural -->
<g id="edge49" class="edge"><title>Afganistan&#45;&gt;Ural</title>
<path fill="none" stroke="black" d="M896,-354.104C896,-364.917 896,-378.846 896,-389.697"/>
</g>
<!-- Afganistan&#45;&gt;Siberia -->
<g id="edge48" class="edge"><title>Afganistan&#45;&gt;Siberia</title>
<path fill="none" stroke="black" d="M870.508,-351.626C848.703,-364.138 817.61,-381.978 796.661,-393.998"/>
</g>
<!-- China -->
<g id="node38" class="node"><title>China</title>
<ellipse fill="green" stroke="green" cx="826" cy="-261" rx="31.6951" ry="18"/>
<text text-anchor="middle" x="826" y="-257.3" font-family="Times,serif" font-size="14.00">China</text>
</g>
<!-- Afganistan&#45;&gt;China -->
<g id="edge45" class="edge"><title>Afganistan&#45;&gt;China</title>
<path fill="none" stroke="black" d="M880.465,-318.799C868.542,-306.366 852.202,-289.324 840.536,-277.159"/>
</g>
<!-- Afganistan&#45;&gt;MiddleEast -->
<g id="edge47" class="edge"><title>Afganistan&#45;&gt;MiddleEast</title>
<path fill="none" stroke="black" d="M894.006,-317.882C890.93,-296.954 883.551,-261.106 867,-235 859.666,-223.432 848.507,-213.108 838.495,-205.275"/>
</g>
<!-- India -->
<g id="node41" class="node"><title>India</title>
<ellipse fill="green" stroke="green" cx="915" cy="-189" rx="28.6953" ry="18"/>
<text text-anchor="middle" x="915" y="-185.3" font-family="Times,serif" font-size="14.00">India</text>
</g>
<!-- Afganistan&#45;&gt;India -->
<g id="edge46" class="edge"><title>Afganistan&#45;&gt;India</title>
<path fill="none" stroke="black" d="M898.254,-317.797C901.911,-289.891 909.094,-235.073 912.749,-207.18"/>
</g>
<!-- Irkutsk -->
<g id="node35" class="node"><title>Irkutsk</title>
<ellipse fill="green" stroke="green" cx="645" cy="-336" rx="35.9954" ry="18"/>
<text text-anchor="middle" x="645" y="-332.3" font-family="Times,serif" font-size="14.00">Irkutsk</text>
</g>
<!-- Irkutsk&#45;&gt;Siberia -->
<g id="edge58" class="edge"><title>Irkutsk&#45;&gt;Siberia</title>
<path fill="none" stroke="black" d="M668.623,-349.819C691.948,-362.476 727.405,-381.716 750.639,-394.324"/>
</g>
<!-- Irkutsk&#45;&gt;Yakutsk -->
<g id="edge59" class="edge"><title>Irkutsk&#45;&gt;Yakutsk</title>
<path fill="none" stroke="black" d="M649.195,-354.275C651.844,-365.183 655.251,-379.211 657.885,-390.055"/>
</g>
<!-- Mongolia -->
<g id="node36" class="node"><title>Mongolia</title>
<ellipse fill="green" stroke="green" cx="744" cy="-336" rx="45.4919" ry="18"/>
<text text-anchor="middle" x="744" y="-332.3" font-family="Times,serif" font-size="14.00">Mongolia</text>
</g>
<!-- Irkutsk&#45;&gt;Mongolia -->
<g id="edge57" class="edge"><title>Irkutsk&#45;&gt;Mongolia</title>
<path fill="none" stroke="black" d="M680.965,-336C686.71,-336 692.456,-336 698.201,-336"/>
</g>
<!-- Kamchatka -->
<g id="node37" class="node"><title>Kamchatka</title>
<ellipse fill="green" stroke="green" cx="540" cy="-336" rx="51.1914" ry="18"/>
<text text-anchor="middle" x="540" y="-332.3" font-family="Times,serif" font-size="14.00">Kamchatka</text>
</g>
<!-- Kamchatka&#45;&gt;Irkutsk -->
<g id="edge62" class="edge"><title>Kamchatka&#45;&gt;Irkutsk</title>
<path fill="none" stroke="black" d="M591.68,-336C597.512,-336 603.344,-336 609.175,-336"/>
</g>
<!-- Kamchatka&#45;&gt;Mongolia -->
<g id="edge63" class="edge"><title>Kamchatka&#45;&gt;Mongolia</title>
<path fill="none" stroke="black" d="M563.764,-352.038C576.569,-359.715 592.99,-368.075 609,-372 640.079,-379.62 650.072,-380.213 681,-372 695.854,-368.055 710.858,-359.694 722.496,-352.022"/>
</g>
<!-- Yakitsk -->
<g id="node43" class="node"><title>Yakitsk</title>
<ellipse fill="green" stroke="green" cx="540" cy="-261" rx="38.1938" ry="18"/>
<text text-anchor="middle" x="540" y="-257.3" font-family="Times,serif" font-size="14.00">Yakitsk</text>
</g>
<!-- Kamchatka&#45;&gt;Yakitsk -->
<g id="edge64" class="edge"><title>Kamchatka&#45;&gt;Yakitsk</title>
<path fill="none" stroke="black" d="M540,-317.7C540,-306.063 540,-290.787 540,-279.176"/>
</g>
<!-- China&#45;&gt;Ural -->
<g id="edge54" class="edge"><title>China&#45;&gt;Ural</title>
<path fill="none" stroke="black" d="M824.828,-279.324C824.272,-298.641 825.651,-330.284 838,-354 846.945,-371.18 863.812,-385.608 877.061,-395.051"/>
</g>
<!-- China&#45;&gt;Siberia -->
<g id="edge53" class="edge"><title>China&#45;&gt;Siberia</title>
<path fill="none" stroke="black" d="M821.583,-278.838C816.537,-297.454 807.713,-328.221 798,-354 793.37,-366.288 787.254,-379.763 782.354,-390.051"/>
</g>
<!-- China&#45;&gt;Mongolia -->
<g id="edge51" class="edge"><title>China&#45;&gt;Mongolia</title>
<path fill="none" stroke="black" d="M809.635,-276.568C795.801,-288.885 776.018,-306.496 761.793,-319.16"/>
</g>
<!-- China&#45;&gt;India -->
<g id="edge50" class="edge"><title>China&#45;&gt;India</title>
<path fill="none" stroke="black" d="M844.01,-245.834C859.655,-233.53 882.167,-215.824 897.622,-203.668"/>
</g>
<!-- Siam -->
<g id="node42" class="node"><title>Siam</title>
<ellipse fill="green" stroke="green" cx="717" cy="-189" rx="29.4969" ry="18"/>
<text text-anchor="middle" x="717" y="-185.3" font-family="Times,serif" font-size="14.00">Siam</text>
</g>
<!-- China&#45;&gt;Siam -->
<g id="edge52" class="edge"><title>China&#45;&gt;Siam</title>
<path fill="none" stroke="black" d="M805.753,-246.998C786.052,-234.345 756.308,-215.244 736.771,-202.697"/>
</g>
<!-- Japan -->
<g id="node39" class="node"><title>Japan</title>
<ellipse fill="green" stroke="green" cx="686" cy="-261" rx="30.5947" ry="18"/>
<text text-anchor="middle" x="686" y="-257.3" font-family="Times,serif" font-size="14.00">Japan</text>
</g>
<!-- Japan&#45;&gt;Mongolia -->
<g id="edge61" class="edge"><title>Japan&#45;&gt;Mongolia</title>
<path fill="none" stroke="black" d="M698.316,-277.501C707.868,-289.523 721.079,-306.152 730.839,-318.435"/>
</g>
<!-- Japan&#45;&gt;Kamchatka -->
<g id="edge60" class="edge"><title>Japan&#45;&gt;Kamchatka</title>
<path fill="none" stroke="black" d="M663.208,-273.396C637.545,-286.227 595.827,-307.087 568.15,-320.925"/>
</g>
<!-- MiddleEast&#45;&gt;Ukraine -->
<g id="edge74" class="edge"><title>MiddleEast&#45;&gt;Ukraine</title>
<path fill="none" stroke="black" d="M842.98,-204.623C855.606,-211.059 871.116,-217.759 886,-221 912.925,-226.862 921.267,-227.683 948,-221 961.4,-217.65 975.084,-210.678 985.994,-204.095"/>
</g>
<!-- MiddleEast&#45;&gt;SEU -->
<g id="edge73" class="edge"><title>MiddleEast&#45;&gt;SEU</title>
<path fill="none" stroke="black" d="M845.206,-174.025C855.096,-169.838 866.339,-165.658 877,-163 911.672,-154.357 925.54,-171.945 957,-155 970.234,-147.871 980.658,-134.184 987.386,-123.244"/>
</g>
<!-- India&#45;&gt;MiddleEast -->
<g id="edge55" class="edge"><title>India&#45;&gt;MiddleEast</title>
<path fill="none" stroke="black" d="M886.12,-189C880.149,-189 874.178,-189 868.207,-189"/>
</g>
<!-- India&#45;&gt;Siam -->
<g id="edge56" class="edge"><title>India&#45;&gt;Siam</title>
<path fill="none" stroke="black" d="M898.456,-203.881C889.987,-210.503 879.132,-217.57 868,-221 823.827,-234.61 808.173,-234.61 764,-221 752.868,-217.57 742.013,-210.503 733.544,-203.881"/>
</g>
<!-- Siam&#45;&gt;Indonesia -->
<g id="edge77" class="edge"><title>Siam&#45;&gt;Indonesia</title>
<path fill="none" stroke="black" d="M716.788,-170.822C716.618,-157.076 716.381,-137.893 716.212,-124.153"/>
</g>
</g>
</svg>
