<?xml version="1.0" encoding="UTF-8" standalone="no"?>
<!DOCTYPE svg PUBLIC "-//W3C//DTD SVG 1.1//EN"
 "http://www.w3.org/Graphics/SVG/1.1/DTD/svg11.dtd">
<!-- Generated by graphviz version 2.38.0 (20140413.2041)
 -->
<!-- Title: G Pages: 1 -->
<svg width="1149pt" height="1020pt"
 viewBox="0.00 0.00 1149.34 1020.11" xmlns="http://www.w3.org/2000/svg" xmlns:xlink="http://www.w3.org/1999/xlink">
<g id="graph0" class="graph" transform="scale(1 1) rotate(0) translate(4 1016.11)">
<title>G</title>
<polygon fill="white" stroke="none" points="-4,4 -4,-1016.11 1145.34,-1016.11 1145.34,4 -4,4"/>
<g id="clust1" class="cluster"><title>cluster_north_america</title>
<polygon fill="lightgrey" stroke="black" points="516,-695 516,-986 904,-986 904,-695 516,-695"/>
<text text-anchor="middle" x="710" y="-970.8" font-family="Times,serif" font-size="14.00">North America</text>
</g>
<g id="clust10" class="cluster"><title>cluster_africa</title>
<polygon fill="lightgrey" stroke="black" points="819,-307 819,-537 1105,-537 1105,-307 819,-307"/>
<text text-anchor="middle" x="962" y="-521.8" font-family="Times,serif" font-size="14.00">Africa</text>
</g>
<g id="clust6" class="cluster"><title>cluster_south_america</title>
<polygon fill="lightgrey" stroke="black" points="659,-462 659,-687 811,-687 811,-462 659,-462"/>
<text text-anchor="middle" x="735" y="-671.8" font-family="Times,serif" font-size="14.00">South America</text>
</g>
<g id="clust14" class="cluster"><title>cluster_europa</title>
<polygon fill="lightgrey" stroke="black" points="427,-235 427,-454 811,-454 811,-235 427,-235"/>
<text text-anchor="middle" x="619" y="-438.8" font-family="Times,serif" font-size="14.00">Europe</text>
</g>
<g id="clust22" class="cluster"><title>cluster_asia</title>
<polygon fill="lightgrey" stroke="black" points="8,-235 8,-612 387,-612 387,-235 8,-235"/>
<text text-anchor="middle" x="197.5" y="-596.8" font-family="Times,serif" font-size="14.00">Asia</text>
</g>
<g id="clust18" class="cluster"><title>cluster_australia</title>
<polygon fill="lightgrey" stroke="black" points="73,-8 73,-227 368,-227 368,-8 73,-8"/>
<text text-anchor="middle" x="220.5" y="-211.8" font-family="Times,serif" font-size="14.00">Australia</text>
</g>
<!-- NWT -->
<g id="node1" class="node"><title>NWT</title>
<ellipse fill="yellow" stroke="yellow" cx="810" cy="-937" rx="81.4863" ry="18"/>
<text text-anchor="middle" x="810" y="-933.3" font-family="Times,serif" font-size="14.00">Northwest Territory</text>
</g>
<!-- QC -->
<g id="node2" class="node"><title>QC</title>
<ellipse fill="yellow" stroke="yellow" cx="593" cy="-865" rx="37.8943" ry="18"/>
<text text-anchor="middle" x="593" y="-861.3" font-family="Times,serif" font-size="14.00">Quebec</text>
</g>
<!-- EUS -->
<g id="node4" class="node"><title>EUS</title>
<ellipse fill="yellow" stroke="yellow" cx="611" cy="-793" rx="87.1846" ry="18"/>
<text text-anchor="middle" x="611" y="-789.3" font-family="Times,serif" font-size="14.00">Eastern United States</text>
</g>
<!-- QC&#45;&gt;EUS -->
<g id="edge9" class="edge"><title>QC&#45;&gt;EUS</title>
<path fill="none" stroke="black" d="M597.357,-847.055C600.146,-836.211 603.753,-822.183 606.558,-811.275"/>
</g>
<!-- Greenland -->
<g id="node7" class="node"><title>Greenland</title>
<ellipse fill="yellow" stroke="yellow" cx="575" cy="-937" rx="47.3916" ry="18"/>
<text text-anchor="middle" x="575" y="-933.3" font-family="Times,serif" font-size="14.00">Greenland</text>
</g>
<!-- QC&#45;&gt;Greenland -->
<g id="edge10" class="edge"><title>QC&#45;&gt;Greenland</title>
<path fill="none" stroke="black" d="M588.558,-883.275C585.753,-894.183 582.146,-908.211 579.357,-919.055"/>
</g>
<!-- Ontario -->
<g id="node9" class="node"><title>Ontario</title>
<ellipse fill="yellow" stroke="yellow" cx="686" cy="-865" rx="37.8943" ry="18"/>
<text text-anchor="middle" x="686" y="-861.3" font-family="Times,serif" font-size="14.00">Ontario</text>
</g>
<!-- QC&#45;&gt;Ontario -->
<g id="edge8" class="edge"><title>QC&#45;&gt;Ontario</title>
<path fill="none" stroke="black" d="M630.781,-865C636.533,-865 642.285,-865 648.037,-865"/>
</g>
<!-- WUS -->
<g id="node3" class="node"><title>WUS</title>
<ellipse fill="yellow" stroke="yellow" cx="806" cy="-793" rx="90.1842" ry="18"/>
<text text-anchor="middle" x="806" y="-789.3" font-family="Times,serif" font-size="14.00">Western United States</text>
</g>
<!-- EUS&#45;&gt;WUS -->
<g id="edge12" class="edge"><title>EUS&#45;&gt;WUS</title>
<path fill="none" stroke="black" d="M698.217,-793C703.971,-793 709.725,-793 715.479,-793"/>
</g>
<!-- EUS&#45;&gt;Ontario -->
<g id="edge11" class="edge"><title>EUS&#45;&gt;Ontario</title>
<path fill="none" stroke="black" d="M628.908,-810.714C641.185,-822.173 657.358,-837.267 669.355,-848.465"/>
</g>
<!-- CentralAmerica -->
<g id="node5" class="node"><title>CentralAmerica</title>
<ellipse fill="yellow" stroke="yellow" cx="735" cy="-721" rx="69.5877" ry="18"/>
<text text-anchor="middle" x="735" y="-717.3" font-family="Times,serif" font-size="14.00">Central America</text>
</g>
<!-- CentralAmerica&#45;&gt;WUS -->
<g id="edge6" class="edge"><title>CentralAmerica&#45;&gt;WUS</title>
<path fill="none" stroke="black" d="M752.029,-738.789C763.16,-749.764 777.65,-764.049 788.813,-775.055"/>
</g>
<!-- CentralAmerica&#45;&gt;EUS -->
<g id="edge7" class="edge"><title>CentralAmerica&#45;&gt;EUS</title>
<path fill="none" stroke="black" d="M707.112,-737.743C686.933,-749.135 659.755,-764.477 639.448,-775.941"/>
</g>
<!-- Venezuala -->
<g id="node10" class="node"><title>Venezuala</title>
<ellipse fill="orangered" stroke="orangered" cx="735" cy="-638" rx="48.1917" ry="18"/>
<text text-anchor="middle" x="735" y="-634.3" font-family="Times,serif" font-size="14.00">Venezuala</text>
</g>
<!-- CentralAmerica&#45;&gt;Venezuala -->
<g id="edge69" class="edge"><title>CentralAmerica&#45;&gt;Venezuala</title>
<path fill="none" stroke="black" d="M735,-702.822C735,-689.076 735,-669.893 735,-656.153"/>
</g>
<!-- Alaska -->
<g id="node6" class="node"><title>Alaska</title>
<ellipse fill="yellow" stroke="yellow" cx="676" cy="-937" rx="35.194" ry="18"/>
<text text-anchor="middle" x="676" y="-933.3" font-family="Times,serif" font-size="14.00">Alaska</text>
</g>
<!-- Alaska&#45;&gt;NWT -->
<g id="edge2" class="edge"><title>Alaska&#45;&gt;NWT</title>
<path fill="none" stroke="black" d="M711.332,-937C717.113,-937 722.895,-937 728.676,-937"/>
</g>
<!-- Alberta -->
<g id="node8" class="node"><title>Alberta</title>
<ellipse fill="yellow" stroke="yellow" cx="792" cy="-865" rx="37.0935" ry="18"/>
<text text-anchor="middle" x="792" y="-861.3" font-family="Times,serif" font-size="14.00">Alberta</text>
</g>
<!-- Alaska&#45;&gt;Alberta -->
<g id="edge1" class="edge"><title>Alaska&#45;&gt;Alberta</title>
<path fill="none" stroke="black" d="M697.819,-922.834C718.295,-910.477 748.789,-892.076 769.488,-879.585"/>
</g>
<!-- Kamchatka -->
<g id="node35" class="node"><title>Kamchatka</title>
<ellipse fill="green" stroke="green" cx="67" cy="-563" rx="51.1914" ry="18"/>
<text text-anchor="middle" x="67" y="-559.3" font-family="Times,serif" font-size="14.00">Kamchatka</text>
</g>
<!-- Alaska&#45;&gt;Kamchatka -->
<g id="edge67" class="edge"><title>Alaska&#45;&gt;Kamchatka</title>
<path fill="none" stroke="black" d="M648.631,-925.541C616.271,-913.052 564.473,-892.644 546,-883 349.733,-780.532 308.075,-740.814 128,-612 113.642,-601.729 98.0053,-589.401 86.1583,-579.81"/>
</g>
<!-- Greenland&#45;&gt;NWT -->
<g id="edge13" class="edge"><title>Greenland&#45;&gt;NWT</title>
<path fill="none" stroke="black" d="M586.149,-954.559C597.64,-970.851 617.203,-994.038 641,-1004 669.698,-1016.01 681.255,-1013.12 711,-1004 742.35,-994.389 772.714,-971.12 791.366,-954.713"/>
</g>
<!-- Greenland&#45;&gt;Ontario -->
<g id="edge14" class="edge"><title>Greenland&#45;&gt;Ontario</title>
<path fill="none" stroke="black" d="M598.54,-921.155C617.886,-908.955 645.092,-891.798 664.004,-879.872"/>
</g>
<!-- Iceland -->
<g id="node24" class="node"><title>Iceland</title>
<ellipse fill="lightblue" stroke="lightblue" cx="509" cy="-405" rx="36.2938" ry="18"/>
<text text-anchor="middle" x="509" y="-401.3" font-family="Times,serif" font-size="14.00">Iceland</text>
</g>
<!-- Greenland&#45;&gt;Iceland -->
<g id="edge73" class="edge"><title>Greenland&#45;&gt;Iceland</title>
<path fill="none" stroke="black" d="M565.182,-919.028C559.36,-908.732 551.975,-895.256 546,-883 530.732,-851.683 523.899,-844.684 515,-811 495.355,-736.642 496,-715.909 496,-639 496,-639 496,-639 496,-562 496,-511.45 502.863,-452.004 506.616,-423.274"/>
</g>
<!-- Alberta&#45;&gt;NWT -->
<g id="edge3" class="edge"><title>Alberta&#45;&gt;NWT</title>
<path fill="none" stroke="black" d="M796.398,-883.104C799.179,-893.917 802.76,-907.846 805.551,-918.697"/>
</g>
<!-- Alberta&#45;&gt;WUS -->
<g id="edge5" class="edge"><title>Alberta&#45;&gt;WUS</title>
<path fill="none" stroke="black" d="M795.389,-847.055C797.558,-836.211 800.363,-822.183 802.545,-811.275"/>
</g>
<!-- Alberta&#45;&gt;Ontario -->
<g id="edge4" class="edge"><title>Alberta&#45;&gt;Ontario</title>
<path fill="none" stroke="black" d="M754.864,-865C744.607,-865 734.35,-865 724.094,-865"/>
</g>
<!-- Ontario&#45;&gt;WUS -->
<g id="edge15" class="edge"><title>Ontario&#45;&gt;WUS</title>
<path fill="none" stroke="black" d="M708.854,-850.669C728.574,-839.165 757.121,-822.513 778.169,-810.235"/>
</g>
<!-- Brazil -->
<g id="node11" class="node"><title>Brazil</title>
<ellipse fill="orangered" stroke="orangered" cx="771" cy="-563" rx="32.4942" ry="18"/>
<text text-anchor="middle" x="771" y="-559.3" font-family="Times,serif" font-size="14.00">Brazil</text>
</g>
<!-- Brazil&#45;&gt;Venezuala -->
<g id="edge18" class="edge"><title>Brazil&#45;&gt;Venezuala</title>
<path fill="none" stroke="black" d="M762.82,-580.588C757,-592.389 749.207,-608.191 743.35,-620.069"/>
</g>
<!-- NorthAfrica -->
<g id="node16" class="node"><title>NorthAfrica</title>
<ellipse fill="orange" stroke="orange" cx="914" cy="-488" rx="55.7903" ry="18"/>
<text text-anchor="middle" x="914" y="-484.3" font-family="Times,serif" font-size="14.00">North Africa</text>
</g>
<!-- Brazil&#45;&gt;NorthAfrica -->
<g id="edge68" class="edge"><title>Brazil&#45;&gt;NorthAfrica</title>
<path fill="none" stroke="black" d="M794.294,-550.109C819.223,-537.382 858.788,-517.185 885.544,-503.526"/>
</g>
<!-- Peru -->
<g id="node12" class="node"><title>Peru</title>
<ellipse fill="orangered" stroke="orangered" cx="694" cy="-563" rx="27" ry="18"/>
<text text-anchor="middle" x="694" y="-559.3" font-family="Times,serif" font-size="14.00">Peru</text>
</g>
<!-- Peru&#45;&gt;Venezuala -->
<g id="edge19" class="edge"><title>Peru&#45;&gt;Venezuala</title>
<path fill="none" stroke="black" d="M703.036,-580.088C709.692,-591.939 718.725,-608.023 725.491,-620.069"/>
</g>
<!-- Argentina -->
<g id="node13" class="node"><title>Argentina</title>
<ellipse fill="orangered" stroke="orangered" cx="735" cy="-488" rx="46.2923" ry="18"/>
<text text-anchor="middle" x="735" y="-484.3" font-family="Times,serif" font-size="14.00">Argentina</text>
</g>
<!-- Argentina&#45;&gt;Brazil -->
<g id="edge16" class="edge"><title>Argentina&#45;&gt;Brazil</title>
<path fill="none" stroke="black" d="M743.261,-505.752C749.132,-517.657 756.981,-533.572 762.831,-545.435"/>
</g>
<!-- Argentina&#45;&gt;Peru -->
<g id="edge17" class="edge"><title>Argentina&#45;&gt;Peru</title>
<path fill="none" stroke="black" d="M725.642,-505.662C718.882,-517.699 709.799,-533.87 703.099,-545.799"/>
</g>
<!-- SouthAfrica -->
<g id="node14" class="node"><title>SouthAfrica</title>
<ellipse fill="orange" stroke="orange" cx="883" cy="-333" rx="55.7903" ry="18"/>
<text text-anchor="middle" x="883" y="-329.3" font-family="Times,serif" font-size="14.00">South Africa</text>
</g>
<!-- EastAfrica -->
<g id="node15" class="node"><title>EastAfrica</title>
<ellipse fill="orange" stroke="orange" cx="1046" cy="-405" rx="50.8918" ry="18"/>
<text text-anchor="middle" x="1046" y="-401.3" font-family="Times,serif" font-size="14.00">East Africa</text>
</g>
<!-- EastAfrica&#45;&gt;SouthAfrica -->
<g id="edge25" class="edge"><title>EastAfrica&#45;&gt;SouthAfrica</title>
<path fill="none" stroke="black" d="M1014.96,-390.669C986.323,-378.372 943.988,-360.191 915.041,-347.76"/>
</g>
<!-- EastAfrica&#45;&gt;NorthAfrica -->
<g id="edge24" class="edge"><title>EastAfrica&#45;&gt;NorthAfrica</title>
<path fill="none" stroke="black" d="M1028.48,-421.924C1016.94,-431.911 1001.22,-444.622 986,-454 974.06,-461.358 960.204,-468.091 947.855,-473.53"/>
</g>
<!-- Egypt -->
<g id="node18" class="node"><title>Egypt</title>
<ellipse fill="orange" stroke="orange" cx="945" cy="-405" rx="31.6951" ry="18"/>
<text text-anchor="middle" x="945" y="-401.3" font-family="Times,serif" font-size="14.00">Egypt</text>
</g>
<!-- EastAfrica&#45;&gt;Egypt -->
<g id="edge23" class="edge"><title>EastAfrica&#45;&gt;Egypt</title>
<path fill="none" stroke="black" d="M995.297,-405C989.183,-405 983.07,-405 976.957,-405"/>
</g>
<!-- Madagascar -->
<g id="node19" class="node"><title>Madagascar</title>
<ellipse fill="orange" stroke="orange" cx="1011" cy="-333" rx="53.8905" ry="18"/>
<text text-anchor="middle" x="1011" y="-329.3" font-family="Times,serif" font-size="14.00">Madagascar</text>
</g>
<!-- EastAfrica&#45;&gt;Madagascar -->
<g id="edge26" class="edge"><title>EastAfrica&#45;&gt;Madagascar</title>
<path fill="none" stroke="black" d="M1037.53,-387.055C1032.02,-376.049 1024.88,-361.764 1019.39,-350.789"/>
</g>
<!-- SouthernEurope -->
<g id="node22" class="node"><title>SouthernEurope</title>
<ellipse fill="lightblue" stroke="lightblue" cx="733" cy="-261" rx="70.3881" ry="18"/>
<text text-anchor="middle" x="733" y="-257.3" font-family="Times,serif" font-size="14.00">Southern Europe</text>
</g>
<!-- EastAfrica&#45;&gt;SouthernEurope -->
<g id="edge70" class="edge"><title>EastAfrica&#45;&gt;SouthernEurope</title>
<path fill="none" stroke="black" d="M1064.01,-388.032C1085.09,-367.449 1114.55,-331.41 1093,-307 1074.03,-285.515 900.079,-271.835 801.097,-265.721"/>
</g>
<!-- WesternEurope -->
<g id="node21" class="node"><title>WesternEurope</title>
<ellipse fill="lightblue" stroke="lightblue" cx="577" cy="-261" rx="68.4888" ry="18"/>
<text text-anchor="middle" x="577" y="-257.3" font-family="Times,serif" font-size="14.00">Western Europe</text>
</g>
<!-- NorthAfrica&#45;&gt;WesternEurope -->
<g id="edge77" class="edge"><title>NorthAfrica&#45;&gt;WesternEurope</title>
<path fill="none" stroke="black" d="M874.895,-474.969C856.847,-469.977 835.025,-464.721 815,-462 795.673,-459.373 479.874,-465.334 464,-454 409.082,-414.787 385.669,-361.103 426,-307 445.373,-281.011 479.166,-269.44 509.877,-264.508"/>
</g>
<!-- NorthAfrica&#45;&gt;SouthernEurope -->
<g id="edge76" class="edge"><title>NorthAfrica&#45;&gt;SouthernEurope</title>
<path fill="none" stroke="black" d="M969.56,-484.961C1019.74,-481.839 1088.35,-473.944 1106,-454 1149.33,-405.05 1154.41,-355.88 1111,-307 1090.84,-284.299 904.876,-271.003 801.513,-265.305"/>
</g>
<!-- Congo -->
<g id="node17" class="node"><title>Congo</title>
<ellipse fill="orange" stroke="orange" cx="861" cy="-405" rx="34.394" ry="18"/>
<text text-anchor="middle" x="861" y="-401.3" font-family="Times,serif" font-size="14.00">Congo</text>
</g>
<!-- Congo&#45;&gt;SouthAfrica -->
<g id="edge22" class="edge"><title>Congo&#45;&gt;SouthAfrica</title>
<path fill="none" stroke="black" d="M866.326,-387.055C869.734,-376.211 874.142,-362.183 877.571,-351.275"/>
</g>
<!-- Congo&#45;&gt;EastAfrica -->
<g id="edge20" class="edge"><title>Congo&#45;&gt;EastAfrica</title>
<path fill="none" stroke="black" d="M873.023,-422.12C880.91,-432.395 891.967,-445.146 904,-454 907.526,-456.594 908.718,-457.091 913,-458 926.912,-460.952 963.088,-460.952 977,-458 999.164,-453.296 1019.04,-435.909 1031.71,-422.316"/>
</g>
<!-- Congo&#45;&gt;NorthAfrica -->
<g id="edge21" class="edge"><title>Congo&#45;&gt;NorthAfrica</title>
<path fill="none" stroke="black" d="M871.606,-422.209C880.716,-436.132 893.801,-456.13 903.018,-470.217"/>
</g>
<!-- Egypt&#45;&gt;NorthAfrica -->
<g id="edge28" class="edge"><title>Egypt&#45;&gt;NorthAfrica</title>
<path fill="none" stroke="black" d="M938.541,-422.876C933.276,-436.633 925.871,-455.983 920.574,-469.822"/>
</g>
<!-- Egypt&#45;&gt;SouthernEurope -->
<g id="edge72" class="edge"><title>Egypt&#45;&gt;SouthernEurope</title>
<path fill="none" stroke="black" d="M970.144,-393.552C975.382,-391.382 980.87,-389.113 986,-387 1025.07,-370.907 1050.45,-386.084 1074,-351 1084.9,-334.764 1086.89,-321.705 1074,-307 1056.26,-286.766 894.448,-272.716 800.241,-266.174"/>
</g>
<!-- MiddleEast -->
<g id="node31" class="node"><title>MiddleEast</title>
<ellipse fill="green" stroke="green" cx="325" cy="-333" rx="53.8905" ry="18"/>
<text text-anchor="middle" x="325" y="-329.3" font-family="Times,serif" font-size="14.00">Middle East</text>
</g>
<!-- Egypt&#45;&gt;MiddleEast -->
<g id="edge71" class="edge"><title>Egypt&#45;&gt;MiddleEast</title>
<path fill="none" stroke="black" d="M921.579,-392.793C915.937,-390.515 909.847,-388.393 904,-387 695.461,-337.317 635.75,-377.351 423,-351 405.863,-348.877 387.161,-345.819 370.731,-342.88"/>
</g>
<!-- Madagascar&#45;&gt;SouthAfrica -->
<g id="edge27" class="edge"><title>Madagascar&#45;&gt;SouthAfrica</title>
<path fill="none" stroke="black" d="M957,-333C951,-333 945,-333 939,-333"/>
</g>
<!-- GreatBritain -->
<g id="node20" class="node"><title>GreatBritain</title>
<ellipse fill="lightblue" stroke="lightblue" cx="588" cy="-333" rx="57.3905" ry="18"/>
<text text-anchor="middle" x="588" y="-329.3" font-family="Times,serif" font-size="14.00">Great Britain</text>
</g>
<!-- GreatBritain&#45;&gt;WesternEurope -->
<g id="edge32" class="edge"><title>GreatBritain&#45;&gt;WesternEurope</title>
<path fill="none" stroke="black" d="M585.281,-314.697C583.576,-303.846 581.387,-289.917 579.688,-279.104"/>
</g>
<!-- NorthernEurope -->
<g id="node23" class="node"><title>NorthernEurope</title>
<ellipse fill="lightblue" stroke="lightblue" cx="733" cy="-333" rx="70.3881" ry="18"/>
<text text-anchor="middle" x="733" y="-329.3" font-family="Times,serif" font-size="14.00">Northern Europe</text>
</g>
<!-- GreatBritain&#45;&gt;NorthernEurope -->
<g id="edge30" class="edge"><title>GreatBritain&#45;&gt;NorthernEurope</title>
<path fill="none" stroke="black" d="M645.207,-333C651.037,-333 656.867,-333 662.697,-333"/>
</g>
<!-- GreatBritain&#45;&gt;Iceland -->
<g id="edge29" class="edge"><title>GreatBritain&#45;&gt;Iceland</title>
<path fill="none" stroke="black" d="M569.792,-350.134C556.653,-361.776 539.03,-377.391 526.142,-388.811"/>
</g>
<!-- Scandinavia -->
<g id="node25" class="node"><title>Scandinavia</title>
<ellipse fill="lightblue" stroke="lightblue" cx="617" cy="-405" rx="53.8905" ry="18"/>
<text text-anchor="middle" x="617" y="-401.3" font-family="Times,serif" font-size="14.00">Scandinavia</text>
</g>
<!-- GreatBritain&#45;&gt;Scandinavia -->
<g id="edge31" class="edge"><title>GreatBritain&#45;&gt;Scandinavia</title>
<path fill="none" stroke="black" d="M595.157,-351.275C599.676,-362.183 605.487,-376.211 609.98,-387.055"/>
</g>
<!-- Ukraine -->
<g id="node26" class="node"><title>Ukraine</title>
<ellipse fill="lightblue" stroke="lightblue" cx="474" cy="-333" rx="38.9931" ry="18"/>
<text text-anchor="middle" x="474" y="-329.3" font-family="Times,serif" font-size="14.00">Ukraine</text>
</g>
<!-- SouthernEurope&#45;&gt;Ukraine -->
<g id="edge38" class="edge"><title>SouthernEurope&#45;&gt;Ukraine</title>
<path fill="none" stroke="black" d="M681.161,-273.178C672.108,-275.123 662.781,-277.124 654,-279 595.352,-291.531 578.446,-286.74 522,-307 513.687,-309.984 505.007,-314.147 497.351,-318.221"/>
</g>
<!-- NorthernEurope&#45;&gt;WesternEurope -->
<g id="edge37" class="edge"><title>NorthernEurope&#45;&gt;WesternEurope</title>
<path fill="none" stroke="black" d="M699.534,-316.983C673.124,-305.132 636.469,-288.685 610.142,-276.872"/>
</g>
<!-- NorthernEurope&#45;&gt;SouthernEurope -->
<g id="edge34" class="edge"><title>NorthernEurope&#45;&gt;SouthernEurope</title>
<path fill="none" stroke="black" d="M733,-314.697C733,-303.846 733,-289.917 733,-279.104"/>
</g>
<!-- NorthernEurope&#45;&gt;Scandinavia -->
<g id="edge35" class="edge"><title>NorthernEurope&#45;&gt;Scandinavia</title>
<path fill="none" stroke="black" d="M706.949,-349.72C687.49,-361.463 661.058,-377.414 641.885,-388.983"/>
</g>
<!-- NorthernEurope&#45;&gt;Ukraine -->
<g id="edge36" class="edge"><title>NorthernEurope&#45;&gt;Ukraine</title>
<path fill="none" stroke="black" d="M701.744,-349.26C685.329,-356.893 664.598,-365.146 645,-369 595.285,-378.776 579.67,-383.083 531,-369 517.171,-364.999 503.472,-356.532 492.971,-348.814"/>
</g>
<!-- Iceland&#45;&gt;Scandinavia -->
<g id="edge33" class="edge"><title>Iceland&#45;&gt;Scandinavia</title>
<path fill="none" stroke="black" d="M545.703,-405C551.459,-405 557.215,-405 562.97,-405"/>
</g>
<!-- Scandinavia&#45;&gt;Ukraine -->
<g id="edge39" class="edge"><title>Scandinavia&#45;&gt;Ukraine</title>
<path fill="none" stroke="black" d="M587.717,-389.666C561.896,-377.026 524.631,-358.784 499.883,-346.67"/>
</g>
<!-- Ural -->
<g id="node32" class="node"><title>Ural</title>
<ellipse fill="green" stroke="green" cx="352" cy="-563" rx="27" ry="18"/>
<text text-anchor="middle" x="352" y="-559.3" font-family="Times,serif" font-size="14.00">Ural</text>
</g>
<!-- Ukraine&#45;&gt;Ural -->
<g id="edge79" class="edge"><title>Ukraine&#45;&gt;Ural</title>
<path fill="none" stroke="black" d="M465.142,-350.555C442.594,-392.693 383.229,-503.637 360.774,-545.603"/>
</g>
<!-- NewGuinea -->
<g id="node27" class="node"><title>NewGuinea</title>
<ellipse fill="pink" stroke="pink" cx="136" cy="-106" rx="55.4913" ry="18"/>
<text text-anchor="middle" x="136" y="-102.3" font-family="Times,serif" font-size="14.00">New Guinea</text>
</g>
<!-- WesternAustralia -->
<g id="node29" class="node"><title>WesternAustralia</title>
<ellipse fill="pink" stroke="pink" cx="285" cy="-106" rx="75.2868" ry="18"/>
<text text-anchor="middle" x="285" y="-102.3" font-family="Times,serif" font-size="14.00">Western Australia</text>
</g>
<!-- NewGuinea&#45;&gt;WesternAustralia -->
<g id="edge44" class="edge"><title>NewGuinea&#45;&gt;WesternAustralia</title>
<path fill="none" stroke="black" d="M191.293,-106C197.394,-106 203.494,-106 209.595,-106"/>
</g>
<!-- EasternAustralia -->
<g id="node28" class="node"><title>EasternAustralia</title>
<ellipse fill="pink" stroke="pink" cx="218" cy="-34" rx="71.4873" ry="18"/>
<text text-anchor="middle" x="218" y="-30.3" font-family="Times,serif" font-size="14.00">Eastern Australia</text>
</g>
<!-- EasternAustralia&#45;&gt;NewGuinea -->
<g id="edge41" class="edge"><title>EasternAustralia&#45;&gt;NewGuinea</title>
<path fill="none" stroke="black" d="M198.801,-51.3898C185.609,-62.651 168.171,-77.5368 155.019,-88.7646"/>
</g>
<!-- EasternAustralia&#45;&gt;WesternAustralia -->
<g id="edge40" class="edge"><title>EasternAustralia&#45;&gt;WesternAustralia</title>
<path fill="none" stroke="black" d="M234.069,-51.789C244.574,-62.7636 258.247,-77.0492 268.781,-88.055"/>
</g>
<!-- Indonesia -->
<g id="node30" class="node"><title>Indonesia</title>
<ellipse fill="pink" stroke="pink" cx="200" cy="-178" rx="44.6926" ry="18"/>
<text text-anchor="middle" x="200" y="-174.3" font-family="Times,serif" font-size="14.00">Indonesia</text>
</g>
<!-- Indonesia&#45;&gt;NewGuinea -->
<g id="edge42" class="edge"><title>Indonesia&#45;&gt;NewGuinea</title>
<path fill="none" stroke="black" d="M185.156,-160.765C174.965,-149.618 161.477,-134.865 151.208,-123.633"/>
</g>
<!-- Indonesia&#45;&gt;WesternAustralia -->
<g id="edge43" class="edge"><title>Indonesia&#45;&gt;WesternAustralia</title>
<path fill="none" stroke="black" d="M218.864,-161.465C232.559,-150.187 251.054,-134.955 265.004,-123.467"/>
</g>
<!-- MiddleEast&#45;&gt;SouthernEurope -->
<g id="edge74" class="edge"><title>MiddleEast&#45;&gt;SouthernEurope</title>
<path fill="none" stroke="black" d="M364.792,-320.606C382.496,-315.859 403.67,-310.621 423,-307 524.65,-287.956 552.008,-296.118 654,-279 663.27,-277.444 673.099,-275.538 682.559,-273.572"/>
</g>
<!-- MiddleEast&#45;&gt;Ukraine -->
<g id="edge75" class="edge"><title>MiddleEast&#45;&gt;Ukraine</title>
<path fill="none" stroke="black" d="M379.129,-333C397.658,-333 416.188,-333 434.717,-333"/>
</g>
<!-- Siberia -->
<g id="node33" class="node"><title>Siberia</title>
<ellipse fill="green" stroke="green" cx="271" cy="-563" rx="35.9954" ry="18"/>
<text text-anchor="middle" x="271" y="-559.3" font-family="Times,serif" font-size="14.00">Siberia</text>
</g>
<!-- Yakutsk -->
<g id="node34" class="node"><title>Yakutsk</title>
<ellipse fill="green" stroke="green" cx="177" cy="-563" rx="40.0939" ry="18"/>
<text text-anchor="middle" x="177" y="-559.3" font-family="Times,serif" font-size="14.00">Yakutsk</text>
</g>
<!-- Siberia&#45;&gt;Yakutsk -->
<g id="edge65" class="edge"><title>Siberia&#45;&gt;Yakutsk</title>
<path fill="none" stroke="black" d="M234.981,-563C229.118,-563 223.254,-563 217.391,-563"/>
</g>
<!-- Kamchatka&#45;&gt;Yakutsk -->
<g id="edge64" class="edge"><title>Kamchatka&#45;&gt;Yakutsk</title>
<path fill="none" stroke="black" d="M118.562,-563C124.498,-563 130.433,-563 136.368,-563"/>
</g>
<!-- Irkutsk -->
<g id="node37" class="node"><title>Irkutsk</title>
<ellipse fill="green" stroke="green" cx="160" cy="-405" rx="35.9954" ry="18"/>
<text text-anchor="middle" x="160" y="-401.3" font-family="Times,serif" font-size="14.00">Irkutsk</text>
</g>
<!-- Kamchatka&#45;&gt;Irkutsk -->
<g id="edge62" class="edge"><title>Kamchatka&#45;&gt;Irkutsk</title>
<path fill="none" stroke="black" d="M101.313,-549.437C107.138,-546.101 112.687,-541.996 117,-537 145.781,-503.661 155.403,-450.572 158.539,-423.347"/>
</g>
<!-- Mongolia -->
<g id="node38" class="node"><title>Mongolia</title>
<ellipse fill="green" stroke="green" cx="61" cy="-405" rx="45.4919" ry="18"/>
<text text-anchor="middle" x="61" y="-401.3" font-family="Times,serif" font-size="14.00">Mongolia</text>
</g>
<!-- Kamchatka&#45;&gt;Mongolia -->
<g id="edge63" class="edge"><title>Kamchatka&#45;&gt;Mongolia</title>
<path fill="none" stroke="black" d="M43.9152,-546.659C41.1199,-543.792 38.6679,-540.561 37,-537 19.151,-498.892 38.8114,-448.757 51.669,-422.957"/>
</g>
<!-- Afganistan -->
<g id="node36" class="node"><title>Afganistan</title>
<ellipse fill="green" stroke="green" cx="322" cy="-405" rx="49.2915" ry="18"/>
<text text-anchor="middle" x="322" y="-401.3" font-family="Times,serif" font-size="14.00">Afganistan</text>
</g>
<!-- Afganistan&#45;&gt;Ukraine -->
<g id="edge66" class="edge"><title>Afganistan&#45;&gt;Ukraine</title>
<path fill="none" stroke="black" d="M351.307,-390.503C379.086,-377.711 420.452,-358.66 447.328,-346.283"/>
</g>
<!-- Afganistan&#45;&gt;MiddleEast -->
<g id="edge47" class="edge"><title>Afganistan&#45;&gt;MiddleEast</title>
<path fill="none" stroke="black" d="M322.742,-386.697C323.207,-375.846 323.804,-361.917 324.267,-351.104"/>
</g>
<!-- Afganistan&#45;&gt;Ural -->
<g id="edge49" class="edge"><title>Afganistan&#45;&gt;Ural</title>
<path fill="none" stroke="black" d="M325.264,-422.971C331.031,-452.964 342.962,-515 348.732,-545.008"/>
</g>
<!-- Afganistan&#45;&gt;Siberia -->
<g id="edge48" class="edge"><title>Afganistan&#45;&gt;Siberia</title>
<path fill="none" stroke="black" d="M320.63,-423.409C318.024,-449.362 310.82,-499.195 292,-537 290.383,-540.248 288.262,-543.434 285.991,-546.387"/>
</g>
<!-- China -->
<g id="node39" class="node"><title>China</title>
<ellipse fill="green" stroke="green" cx="251" cy="-488" rx="31.6951" ry="18"/>
<text text-anchor="middle" x="251" y="-484.3" font-family="Times,serif" font-size="14.00">China</text>
</g>
<!-- Afganistan&#45;&gt;China -->
<g id="edge45" class="edge"><title>Afganistan&#45;&gt;China</title>
<path fill="none" stroke="black" d="M307.621,-422.404C295.083,-436.708 277.02,-457.315 264.69,-471.382"/>
</g>
<!-- India -->
<g id="node41" class="node"><title>India</title>
<ellipse fill="green" stroke="green" cx="224" cy="-333" rx="28.6953" ry="18"/>
<text text-anchor="middle" x="224" y="-329.3" font-family="Times,serif" font-size="14.00">India</text>
</g>
<!-- Afganistan&#45;&gt;India -->
<g id="edge46" class="edge"><title>Afganistan&#45;&gt;India</title>
<path fill="none" stroke="black" d="M300.251,-388.465C282.883,-376.059 258.817,-358.869 242.397,-347.141"/>
</g>
<!-- Irkutsk&#45;&gt;Siberia -->
<g id="edge58" class="edge"><title>Irkutsk&#45;&gt;Siberia</title>
<path fill="none" stroke="black" d="M164.752,-423.333C173.714,-454.95 193.678,-520.275 210,-537 212.598,-539.662 228.288,-546.067 243.103,-551.728"/>
</g>
<!-- Irkutsk&#45;&gt;Yakutsk -->
<g id="edge59" class="edge"><title>Irkutsk&#45;&gt;Yakutsk</title>
<path fill="none" stroke="black" d="M161.901,-423.447C165.189,-453.616 171.895,-515.158 175.148,-545.008"/>
</g>
<!-- Irkutsk&#45;&gt;Mongolia -->
<g id="edge57" class="edge"><title>Irkutsk&#45;&gt;Mongolia</title>
<path fill="none" stroke="black" d="M124.144,-405C118.307,-405 112.47,-405 106.633,-405"/>
</g>
<!-- China&#45;&gt;Ural -->
<g id="edge54" class="edge"><title>China&#45;&gt;Ural</title>
<path fill="none" stroke="black" d="M269.761,-502.56C288.262,-515.932 316.321,-536.213 334.407,-549.284"/>
</g>
<!-- China&#45;&gt;Siberia -->
<g id="edge53" class="edge"><title>China&#45;&gt;Siberia</title>
<path fill="none" stroke="black" d="M255.614,-505.839C258.839,-517.613 263.13,-533.276 266.361,-545.069"/>
</g>
<!-- China&#45;&gt;Mongolia -->
<g id="edge51" class="edge"><title>China&#45;&gt;Mongolia</title>
<path fill="none" stroke="black" d="M219.776,-483.8C191.182,-479.881 148.363,-471.468 115,-454 99.8873,-446.087 85.5916,-433.035 75.5101,-422.537"/>
</g>
<!-- China&#45;&gt;India -->
<g id="edge50" class="edge"><title>China&#45;&gt;India</title>
<path fill="none" stroke="black" d="M248.007,-470.042C242.817,-440.632 232.205,-380.497 227.006,-351.034"/>
</g>
<!-- Siam -->
<g id="node42" class="node"><title>Siam</title>
<ellipse fill="green" stroke="green" cx="200" cy="-261" rx="29.4969" ry="18"/>
<text text-anchor="middle" x="200" y="-257.3" font-family="Times,serif" font-size="14.00">Siam</text>
</g>
<!-- China&#45;&gt;Siam -->
<g id="edge52" class="edge"><title>China&#45;&gt;Siam</title>
<path fill="none" stroke="black" d="M239.833,-470.945C236.432,-465.682 232.845,-459.714 230,-454 215.835,-425.548 218,-416.003 205,-387 197.6,-370.491 190.35,-368.561 186,-351 179.832,-326.101 187.313,-296.578 193.486,-278.574"/>
</g>
<!-- Japan -->
<g id="node40" class="node"><title>Japan</title>
<ellipse fill="green" stroke="green" cx="77" cy="-488" rx="30.5947" ry="18"/>
<text text-anchor="middle" x="77" y="-484.3" font-family="Times,serif" font-size="14.00">Japan</text>
</g>
<!-- Japan&#45;&gt;Kamchatka -->
<g id="edge60" class="edge"><title>Japan&#45;&gt;Kamchatka</title>
<path fill="none" stroke="black" d="M74.6472,-506.176C73.0566,-517.787 70.9639,-533.063 69.3699,-544.7"/>
</g>
<!-- Japan&#45;&gt;Mongolia -->
<g id="edge61" class="edge"><title>Japan&#45;&gt;Mongolia</title>
<path fill="none" stroke="black" d="M73.6068,-469.822C70.8916,-456.076 67.1023,-436.893 64.3883,-423.153"/>
</g>
<!-- India&#45;&gt;MiddleEast -->
<g id="edge55" class="edge"><title>India&#45;&gt;MiddleEast</title>
<path fill="none" stroke="black" d="M252.801,-333C258.817,-333 264.834,-333 270.851,-333"/>
</g>
<!-- India&#45;&gt;Siam -->
<g id="edge56" class="edge"><title>India&#45;&gt;Siam</title>
<path fill="none" stroke="black" d="M218.19,-315.055C214.417,-304.049 209.519,-289.764 205.756,-278.789"/>
</g>
<!-- Siam&#45;&gt;Indonesia -->
<g id="edge78" class="edge"><title>Siam&#45;&gt;Indonesia</title>
<path fill="none" stroke="black" d="M200,-242.822C200,-229.076 200,-209.893 200,-196.153"/>
</g>
</g>
</svg>
